<?xml version="1.0" encoding="UTF-8" standalone="no"?>
<!DOCTYPE svg PUBLIC "-//W3C//DTD SVG 1.1//EN"
 "http://www.w3.org/Graphics/SVG/1.1/DTD/svg11.dtd">
<!-- Generated by graphviz version 2.38.0 (20140413.2041)
 -->
<!-- Title: g Pages: 1 -->
<svg width="568pt" height="218pt"
 viewBox="0.00 0.00 567.88 218.00" xmlns="http://www.w3.org/2000/svg" xmlns:xlink="http://www.w3.org/1999/xlink">
<g id="graph0" class="graph" transform="scale(1 1) rotate(0) translate(4 214)">
<title>g</title>
<polygon fill="white" stroke="none" points="-4,4 -4,-214 563.877,-214 563.877,4 -4,4"/>
<!-- Ne2a1e495eebb9355f65c35b221baf3e2 -->
<g id="node1" class="node"><title>Ne2a1e495eebb9355f65c35b221baf3e2</title>
<ellipse fill="none" stroke="black" cx="345.391" cy="-192" rx="165.971" ry="18"/>
<text text-anchor="middle" x="345.391" y="-188.3" font-family="Times,serif" font-size="14.00">http://www.w3.org/TR/rdf&#45;syntax&#45;grammar</text>
</g>
<!-- N0c5fa03a0fb970aadabf151c9c87ed62 -->
<g id="node2" class="node"><title>N0c5fa03a0fb970aadabf151c9c87ed62</title>
<ellipse fill="none" stroke="black" cx="190.391" cy="-105" rx="27" ry="18"/>
</g>
<!-- Ne2a1e495eebb9355f65c35b221baf3e2&#45;&gt;N0c5fa03a0fb970aadabf151c9c87ed62 -->
<g id="edge1" class="edge"><title>Ne2a1e495eebb9355f65c35b221baf3e2&#45;&gt;N0c5fa03a0fb970aadabf151c9c87ed62</title>
<path fill="none" stroke="black" d="M314.768,-174.207C287.146,-159.059 246.797,-136.932 219.615,-122.026"/>
<polygon fill="black" stroke="black" points="221.043,-118.818 210.592,-117.078 217.678,-124.955 221.043,-118.818"/>
<text text-anchor="middle" x="303.391" y="-144.8" font-family="Times,serif" font-size="14.00">rdf:editor</text>
</g>
<!-- N081f23b7e7aaf8093d5fb128430cafef -->
<g id="node3" class="node"><title>N081f23b7e7aaf8093d5fb128430cafef</title>
<ellipse fill="none" stroke="black" cx="397.391" cy="-105" rx="162.471" ry="18"/>
<text text-anchor="middle" x="397.391" y="-101.3" font-family="Times,serif" font-size="14.00">RDF/XML Syntax Specification (Revised)</text>
</g>
<!-- Ne2a1e495eebb9355f65c35b221baf3e2&#45;&gt;N081f23b7e7aaf8093d5fb128430cafef -->
<g id="edge2" class="edge"><title>Ne2a1e495eebb9355f65c35b221baf3e2&#45;&gt;N081f23b7e7aaf8093d5fb128430cafef</title>
<path fill="none" stroke="black" d="M355.914,-173.799C363.244,-161.817 373.155,-145.617 381.45,-132.057"/>
<polygon fill="black" stroke="black" points="384.651,-133.532 386.884,-123.175 378.679,-129.879 384.651,-133.532"/>
<text text-anchor="middle" x="394.391" y="-144.8" font-family="Times,serif" font-size="14.00">dc:title</text>
</g>
<!-- N80b52def747e8748199c1a0cf66cb35c -->
<g id="node4" class="node"><title>N80b52def747e8748199c1a0cf66cb35c</title>
<ellipse fill="none" stroke="black" cx="101.391" cy="-18" rx="101.282" ry="18"/>
<text text-anchor="middle" x="101.391" y="-14.3" font-family="Times,serif" font-size="14.00">http://purl.org/net/dajobe/</text>
</g>
<!-- N0c5fa03a0fb970aadabf151c9c87ed62&#45;&gt;N80b52def747e8748199c1a0cf66cb35c -->
<g id="edge3" class="edge"><title>N0c5fa03a0fb970aadabf151c9c87ed62&#45;&gt;N80b52def747e8748199c1a0cf66cb35c</title>
<path fill="none" stroke="black" d="M175.293,-89.5809C161.911,-76.7998 142.107,-57.8857 126.367,-42.8535"/>
<polygon fill="black" stroke="black" points="128.662,-40.2054 119.013,-35.8298 123.827,-45.2676 128.662,-40.2054"/>
<text text-anchor="middle" x="188.391" y="-57.8" font-family="Times,serif" font-size="14.00">ex:homePage</text>
</g>
<!-- N53f271b8d0cef8e809247713c99c736b -->
<g id="node5" class="node"><title>N53f271b8d0cef8e809247713c99c736b</title>
<ellipse fill="none" stroke="black" cx="279.391" cy="-18" rx="58.4896" ry="18"/>
<text text-anchor="middle" x="279.391" y="-14.3" font-family="Times,serif" font-size="14.00">Dave Beckett</text>
</g>
<!-- N0c5fa03a0fb970aadabf151c9c87ed62&#45;&gt;N53f271b8d0cef8e809247713c99c736b -->
<g id="edge4" class="edge"><title>N0c5fa03a0fb970aadabf151c9c87ed62&#45;&gt;N53f271b8d0cef8e809247713c99c736b</title>
<path fill="none" stroke="black" d="M206.128,-90.2243C213.305,-83.8537 221.862,-76.1329 229.391,-69 238.261,-60.5965 247.792,-51.1695 256.129,-42.785"/>
<polygon fill="black" stroke="black" points="258.853,-45.0084 263.396,-35.4374 253.876,-40.0858 258.853,-45.0084"/>
<text text-anchor="middle" x="279.891" y="-57.8" font-family="Times,serif" font-size="14.00">ex:fullName</text>
</g>
</g>
</svg>
