<?xml version="1.0" encoding="UTF-8" standalone="no"?>
<!DOCTYPE svg PUBLIC "-//W3C//DTD SVG 1.1//EN"
 "http://www.w3.org/Graphics/SVG/1.1/DTD/svg11.dtd">
<!-- Generated by graphviz version 2.36.0 (20140111.2315)
 -->
<!-- Title: g Pages: 1 -->
<svg width="567pt" height="220pt"
 viewBox="0.00 0.00 567.00 220.00" xmlns="http://www.w3.org/2000/svg" xmlns:xlink="http://www.w3.org/1999/xlink">
<g id="graph0" class="graph" transform="scale(1 1) rotate(0) translate(4 216)">
<title>g</title>
<polygon fill="white" stroke="none" points="-4,4 -4,-216 563,-216 563,4 -4,4"/>
<!-- Ne2a1e495eebb9355f65c35b221baf3e2 -->
<g id="node1" class="node"><title>Ne2a1e495eebb9355f65c35b221baf3e2</title>
<ellipse fill="none" stroke="black" cx="345" cy="-194" rx="165.603" ry="18"/>
<text text-anchor="middle" x="345" y="-190.3" font-family="Times,serif" font-size="14.00">http://www.w3.org/TR/rdf&#45;syntax&#45;grammar</text>
</g>
<!-- N42d3f616cc3432ef2b81b538f0d6e320 -->
<g id="node2" class="node"><title>N42d3f616cc3432ef2b81b538f0d6e320</title>
<ellipse fill="none" stroke="black" cx="190" cy="-106" rx="27" ry="18"/>
</g>
<!-- Ne2a1e495eebb9355f65c35b221baf3e2&#45;&gt;N42d3f616cc3432ef2b81b538f0d6e320 -->
<g id="edge1" class="edge"><title>Ne2a1e495eebb9355f65c35b221baf3e2&#45;&gt;N42d3f616cc3432ef2b81b538f0d6e320</title>
<path fill="none" stroke="black" d="M314.746,-176.214C287.163,-160.91 246.668,-138.442 219.366,-123.293"/>
<polygon fill="black" stroke="black" points="220.744,-120.056 210.302,-118.264 217.348,-126.177 220.744,-120.056"/>
<text text-anchor="middle" x="308" y="-146.3" font-family="Times,serif" font-size="14.00">rdf:editor</text>
</g>
<!-- N081f23b7e7aaf8093d5fb128430cafef -->
<g id="node3" class="node"><title>N081f23b7e7aaf8093d5fb128430cafef</title>
<ellipse fill="none" stroke="black" cx="397" cy="-106" rx="162.228" ry="18"/>
<text text-anchor="middle" x="397" y="-102.3" font-family="Times,serif" font-size="14.00">RDF/XML Syntax Specification (Revised)</text>
</g>
<!-- Ne2a1e495eebb9355f65c35b221baf3e2&#45;&gt;N081f23b7e7aaf8093d5fb128430cafef -->
<g id="edge2" class="edge"><title>Ne2a1e495eebb9355f65c35b221baf3e2&#45;&gt;N081f23b7e7aaf8093d5fb128430cafef</title>
<path fill="none" stroke="black" d="M355.274,-176.009C362.703,-163.722 372.877,-146.895 381.319,-132.934"/>
<polygon fill="black" stroke="black" points="384.391,-134.618 386.57,-124.25 378.401,-130.996 384.391,-134.618"/>
<text text-anchor="middle" x="395" y="-146.3" font-family="Times,serif" font-size="14.00">dc:title</text>
</g>
<!-- N80b52def747e8748199c1a0cf66cb35c -->
<g id="node4" class="node"><title>N80b52def747e8748199c1a0cf66cb35c</title>
<ellipse fill="none" stroke="black" cx="101" cy="-18" rx="101.087" ry="18"/>
<text text-anchor="middle" x="101" y="-14.3" font-family="Times,serif" font-size="14.00">http://purl.org/net/dajobe/</text>
</g>
<!-- N42d3f616cc3432ef2b81b538f0d6e320&#45;&gt;N80b52def747e8748199c1a0cf66cb35c -->
<g id="edge3" class="edge"><title>N42d3f616cc3432ef2b81b538f0d6e320&#45;&gt;N80b52def747e8748199c1a0cf66cb35c</title>
<path fill="none" stroke="black" d="M175.303,-90.7988C161.896,-77.8432 141.808,-58.4324 125.898,-43.0586"/>
<polygon fill="black" stroke="black" points="128.094,-40.3137 118.471,-35.8818 123.23,-45.3476 128.094,-40.3137"/>
<text text-anchor="middle" x="191" y="-58.3" font-family="Times,serif" font-size="14.00">ex:homePage</text>
</g>
<!-- N53f271b8d0cef8e809247713c99c736b -->
<g id="node5" class="node"><title>N53f271b8d0cef8e809247713c99c736b</title>
<ellipse fill="none" stroke="black" cx="279" cy="-18" rx="58.2422" ry="18"/>
<text text-anchor="middle" x="279" y="-14.3" font-family="Times,serif" font-size="14.00">Dave Beckett</text>
</g>
<!-- N42d3f616cc3432ef2b81b538f0d6e320&#45;&gt;N53f271b8d0cef8e809247713c99c736b -->
<g id="edge4" class="edge"><title>N42d3f616cc3432ef2b81b538f0d6e320&#45;&gt;N53f271b8d0cef8e809247713c99c736b</title>
<path fill="none" stroke="black" d="M206.787,-91.8552C214.651,-85.4867 224.023,-77.5889 232,-70 240.816,-61.6127 249.997,-51.8994 257.879,-43.2141"/>
<polygon fill="black" stroke="black" points="260.64,-45.3779 264.706,-35.5944 255.426,-40.7068 260.64,-45.3779"/>
<text text-anchor="middle" x="281.5" y="-58.3" font-family="Times,serif" font-size="14.00">ex:fullName</text>
</g>
</g>
</svg>
