<?xml version="1.0" encoding="UTF-8" standalone="no"?>
<!DOCTYPE svg PUBLIC "-//W3C//DTD SVG 1.1//EN"
 "http://www.w3.org/Graphics/SVG/1.1/DTD/svg11.dtd">
<!-- Generated by graphviz version 2.26.3 (20100126.1600)
 -->
<!-- Title: g Pages: 1 -->
<svg width="649pt" height="224pt"
 viewBox="0.00 0.00 649.00 224.00" xmlns="http://www.w3.org/2000/svg" xmlns:xlink="http://www.w3.org/1999/xlink">
<g id="graph1" class="graph" transform="scale(1 1) rotate(0) translate(4 220)">
<title>g</title>
<polygon fill="white" stroke="white" points="-4,5 -4,-220 646,-220 646,5 -4,5"/>
<!-- Ne2a1e495eebb9355f65c35b221baf3e2 -->
<g id="node1" class="node"><title>Ne2a1e495eebb9355f65c35b221baf3e2</title>
<ellipse fill="none" stroke="black" cx="282" cy="-198" rx="218.193" ry="18"/>
<text text-anchor="middle" x="282" y="-193.9" font-family="Times Roman,serif" font-size="14.00">http://www.w3.org/TR/rdf&#45;syntax&#45;grammar</text>
</g>
<!-- N081f23b7e7aaf8093d5fb128430cafef -->
<g id="node3" class="node"><title>N081f23b7e7aaf8093d5fb128430cafef</title>
<ellipse fill="none" stroke="black" cx="203" cy="-108" rx="203.1" ry="18"/>
<text text-anchor="middle" x="203" y="-103.9" font-family="Times Roman,serif" font-size="14.00">RDF/XML Syntax Specification (Revised)</text>
</g>
<!-- Ne2a1e495eebb9355f65c35b221baf3e2&#45;&gt;N081f23b7e7aaf8093d5fb128430cafef -->
<g id="edge2" class="edge"><title>Ne2a1e495eebb9355f65c35b221baf3e2&#45;&gt;N081f23b7e7aaf8093d5fb128430cafef</title>
<path fill="none" stroke="black" d="M266.013,-179.787C254.449,-166.612 238.656,-148.621 225.775,-133.946"/>
<polygon fill="black" stroke="black" points="228.19,-131.392 218.963,-126.186 222.93,-136.01 228.19,-131.392"/>
<text text-anchor="middle" x="274" y="-148.9" font-family="Times Roman,serif" font-size="14.00">dc:title</text>
</g>
<!-- Nae334c5be0c30747653d7fbb6629b1f2 -->
<g id="node5" class="node"><title>Nae334c5be0c30747653d7fbb6629b1f2</title>
<ellipse fill="none" stroke="black" cx="451" cy="-108" rx="27" ry="18"/>
</g>
<!-- Ne2a1e495eebb9355f65c35b221baf3e2&#45;&gt;Nae334c5be0c30747653d7fbb6629b1f2 -->
<g id="edge4" class="edge"><title>Ne2a1e495eebb9355f65c35b221baf3e2&#45;&gt;Nae334c5be0c30747653d7fbb6629b1f2</title>
<path fill="none" stroke="black" d="M315.793,-180.003C346.389,-163.71 391.058,-139.922 420.564,-124.208"/>
<polygon fill="black" stroke="black" points="422.393,-127.2 429.575,-119.41 419.103,-121.021 422.393,-127.2"/>
<text text-anchor="middle" x="449" y="-148.9" font-family="Times Roman,serif" font-size="14.00">http://hello.fr/editor</text>
</g>
<!-- N80b52def747e8748199c1a0cf66cb35c -->
<g id="node7" class="node"><title>N80b52def747e8748199c1a0cf66cb35c</title>
<ellipse fill="none" stroke="black" cx="336" cy="-18" rx="135.002" ry="18"/>
<text text-anchor="middle" x="336" y="-13.9" font-family="Times Roman,serif" font-size="14.00">http://purl.org/net/dajobe/</text>
</g>
<!-- Nae334c5be0c30747653d7fbb6629b1f2&#45;&gt;N80b52def747e8748199c1a0cf66cb35c -->
<g id="edge6" class="edge"><title>Nae334c5be0c30747653d7fbb6629b1f2&#45;&gt;N80b52def747e8748199c1a0cf66cb35c</title>
<path fill="none" stroke="black" d="M431.827,-95.0465C422.141,-88.3579 410.292,-79.9508 400,-72 387.965,-62.7027 375.079,-51.9869 364.047,-42.5643"/>
<polygon fill="black" stroke="black" points="366.245,-39.8377 356.381,-35.9705 361.68,-45.1448 366.245,-39.8377"/>
<text text-anchor="middle" x="446.5" y="-58.9" font-family="Times Roman,serif" font-size="14.00">ex:homePage</text>
</g>
<!-- N53f271b8d0cef8e809247713c99c736b -->
<g id="node9" class="node"><title>N53f271b8d0cef8e809247713c99c736b</title>
<ellipse fill="none" stroke="black" cx="565" cy="-18" rx="75.9375" ry="18"/>
<text text-anchor="middle" x="565" y="-13.9" font-family="Times Roman,serif" font-size="14.00">Dave Beckett</text>
</g>
<!-- Nae334c5be0c30747653d7fbb6629b1f2&#45;&gt;N53f271b8d0cef8e809247713c99c736b -->
<g id="edge8" class="edge"><title>Nae334c5be0c30747653d7fbb6629b1f2&#45;&gt;N53f271b8d0cef8e809247713c99c736b</title>
<path fill="none" stroke="black" d="M468.812,-93.9375C486.503,-79.9711 513.955,-58.2987 535.011,-41.6759"/>
<polygon fill="black" stroke="black" points="537.34,-44.2965 543.02,-35.3529 533.002,-38.8023 537.34,-44.2965"/>
<text text-anchor="middle" x="559" y="-58.9" font-family="Times Roman,serif" font-size="14.00">ex:fullName</text>
</g>
</g>
</svg>
